<svg width="23" height="22" viewBox="0 0 23 22" fill="none" xmlns="http://www.w3.org/2000/svg">
<ellipse cx="11.5" cy="11" rx="11.5" ry="11" fill="#FF5555"/>
<path d="M12.3742 6.09091L12.2358 13.8626H10.7603L10.6218 6.09091H12.3742ZM11.5007 17.1012C11.2059 17.1012 10.9538 16.9982 10.7443 16.7923C10.5348 16.5827 10.4318 16.3306 10.4353 16.0359C10.4318 15.7447 10.5348 15.4961 10.7443 15.2901C10.9538 15.0806 11.2059 14.9759 11.5007 14.9759C11.7883 14.9759 12.0369 15.0806 12.2464 15.2901C12.4559 15.4961 12.5625 15.7447 12.566 16.0359C12.5625 16.2312 12.511 16.4105 12.4115 16.5739C12.3157 16.7337 12.1878 16.8615 12.028 16.9574C11.8682 17.0533 11.6924 17.1012 11.5007 17.1012Z" fill="#9A0000"/>
</svg>
