<svg width="23" height="24" viewBox="0 0 23 24" fill="none" xmlns="http://www.w3.org/2000/svg">
<ellipse cx="11.5" cy="13" rx="11.5" ry="11" fill="#FFFB97"/>
<path d="M7.24796 14.1012C6.95676 14.1012 6.70641 13.9982 6.49689 13.7923C6.28738 13.5827 6.18262 13.3306 6.18262 13.0359C6.18262 12.7447 6.28738 12.4961 6.49689 12.2901C6.70641 12.0806 6.95676 11.9759 7.24796 11.9759C7.53915 11.9759 7.78951 12.0806 7.99902 12.2901C8.20854 12.4961 8.3133 12.7447 8.3133 13.0359C8.3133 13.2312 8.26358 13.4105 8.16415 13.5739C8.06827 13.7337 7.94043 13.8615 7.78063 13.9574C7.62083 14.0533 7.44327 14.1012 7.24796 14.1012ZM11.496 14.1012C11.2048 14.1012 10.9545 13.9982 10.7449 13.7923C10.5354 13.5827 10.4307 13.3306 10.4307 13.0359C10.4307 12.7447 10.5354 12.4961 10.7449 12.2901C10.9545 12.0806 11.2048 11.9759 11.496 11.9759C11.7872 11.9759 12.0376 12.0806 12.2471 12.2901C12.4566 12.4961 12.5613 12.7447 12.5613 13.0359C12.5613 13.2312 12.5116 13.4105 12.4122 13.5739C12.3163 13.7337 12.1885 13.8615 12.0287 13.9574C11.8689 14.0533 11.6913 14.1012 11.496 14.1012ZM15.7441 14.1012C15.4529 14.1012 15.2025 13.9982 14.993 13.7923C14.7835 13.5827 14.6787 13.3306 14.6787 13.0359C14.6787 12.7447 14.7835 12.4961 14.993 12.2901C15.2025 12.0806 15.4529 11.9759 15.7441 11.9759C16.0352 11.9759 16.2856 12.0806 16.4951 12.2901C16.7046 12.4961 16.8094 12.7447 16.8094 13.0359C16.8094 13.2312 16.7597 13.4105 16.6602 13.5739C16.5644 13.7337 16.4365 13.8615 16.2767 13.9574C16.1169 14.0533 15.9394 14.1012 15.7441 14.1012Z" fill="#F4CD00"/>
</svg>
