<svg width="428" height="826" viewBox="0 0 428 826" fill="none" xmlns="http://www.w3.org/2000/svg">
<path fill-rule="evenodd" clip-rule="evenodd" d="M515.933 502.449L513.688 507.566L511.249 512.604L508.608 517.555L505.761 522.411L502.702 527.161L499.428 531.797L495.936 536.309L492.225 540.687L488.298 544.923L484.158 549.006L479.81 552.929L475.264 556.684L470.532 560.265L465.628 563.666L460.57 566.884L455.38 569.918L450.082 572.769L444.705 575.44L439.276 577.937L433.825 580.268L428.379 582.442L422.965 584.469L417.607 586.36L412.328 588.129L407.148 589.787L402.087 591.35L397.16 592.83L392.384 594.243L387.77 595.603L383.331 596.925L379.074 598.223L375.007 599.512L371.137 600.806L367.467 602.12L364 603.467L360.737 604.86L357.679 606.311L354.825 607.835L352.173 609.442L349.719 611.143L347.46 612.951L345.392 614.874L343.507 616.922L341.801 619.104L340.264 621.429L338.891 623.902L337.672 626.53L336.597 629.32L335.657 632.274L334.842 635.397L334.139 638.69L333.539 642.155L333.029 645.792L332.597 649.6L332.229 653.575L331.913 657.714L331.636 662.012L331.384 666.462L331.144 671.056L330.901 675.784L330.642 680.636L330.354 685.599L330.023 690.66L329.636 695.803L329.18 701.012L328.644 706.271L328.015 711.561L327.283 716.862L326.438 722.155L325.47 727.42L324.372 732.635L323.137 737.781L321.759 742.835L320.232 747.779L318.555 752.591L316.725 757.253L314.74 761.746L312.603 766.056L310.315 770.165L307.879 774.062L305.3 777.734L302.584 781.173L299.737 784.373L296.767 787.328L293.683 790.036L290.493 792.499L287.206 794.717L283.833 796.695L280.383 798.438L276.865 799.955L273.289 801.253L269.664 802.339L265.997 803.222L262.296 803.908L258.569 804.404L254.82 804.715L251.057 804.845L247.285 804.796L243.509 804.572L239.734 804.176L235.966 803.618L232.21 802.908L228.472 802.064L224.756 801.101L221.067 800.041L217.408 798.908L213.781 797.725L210.188 796.518L206.629 795.315L203.102 794.141L199.606 793.025L196.138 791.993L192.691 791.069L189.261 790.278L185.841 789.641L182.423 789.179L178.998 788.908L175.558 788.841L172.094 788.989L168.595 789.359L165.052 789.954L161.457 790.773L157.799 791.813L154.071 793.063L150.266 794.513L146.378 796.146L142.4 797.944L138.331 799.884L134.169 801.941L129.911 804.087L125.561 806.292L121.122 808.524L116.597 810.75L111.996 812.935L107.325 815.045L102.596 817.045L97.8205 818.899L93.0121 820.576L88.1859 822.041L83.3579 823.264L78.5453 824.216L73.766 824.871L69.0386 825.205L64.3817 825.197L59.8143 824.829L55.3551 824.087L51.0224 822.961L46.8338 821.442L42.8062 819.527L38.9551 817.217L35.2949 814.514L31.8386 811.426L28.5974 807.961L25.581 804.135L22.797 799.961L20.2514 795.459L17.9484 790.648L15.8901 785.551L14.0768 780.19L12.5072 774.592L11.1781 768.78L10.0847 762.782L9.22074 756.624L8.57886 750.331L8.15059 743.928L7.92664 737.441L7.89718 730.892L8.05207 724.303L8.38099 717.694L8.8734 711.085L9.51778 704.494L10.3011 697.939L11.2083 691.439L12.2224 685.015L13.3239 678.685L14.4915 672.471L15.7021 666.39L16.9315 660.463L18.1541 654.704L19.3438 649.131L20.4743 643.757L21.5192 638.593L22.4525 633.648L23.2493 628.929L23.8856 624.44L24.3389 620.182L24.5888 616.153L24.617 612.349L24.4078 608.763L23.9482 605.386L23.2282 602.206L22.2411 599.209L20.9831 596.378L19.4539 593.696L17.6565 591.145L15.5972 588.704L13.2858 586.352L10.735 584.068L7.96087 581.83L4.98223 579.617L1.82065 577.409L-1.49986 575.184L-4.95312 572.924L-8.51109 570.611L-12.1442 568.228L-15.8218 565.761L-19.5124 563.197L-23.1842 560.526L-26.8052 557.739L-30.3442 554.829L-33.7705 551.793L-37.0547 548.628L-40.1691 545.336L-43.0879 541.918L-45.7873 538.379L-48.2466 534.726L-50.4475 530.966L-52.3749 527.11L-54.0172 523.168L-55.3658 519.152L-56.4159 515.075L-57.1661 510.949L-57.6186 506.789L-57.7789 502.607L-57.656 498.417L-57.262 494.23L-56.6118 490.059L-55.7232 485.913L-54.6161 481.803L-53.3126 477.735L-51.8361 473.717L-50.2116 469.753L-48.4645 465.846L-46.6206 461.998L-44.7055 458.208L-42.7437 454.475L-40.7588 450.795L-38.7722 447.165L-36.8034 443.578L-34.8692 440.031L-32.9833 436.515L-31.1565 433.024L-29.3957 429.553L-27.7046 426.096L-26.0831 422.647L-24.5284 419.204L-23.039 415.761L-21.6156 412.314L-20.2617 408.856L-18.9829 405.381L-17.7862 401.879L-16.6756 398.343L-15.6523 394.766L-14.714 391.143L-13.8556 387.469L-13.0693 383.743L-12.3448 379.963L-11.6695 376.131L-11.0292 372.25L-10.4082 368.325L-9.78976 364.363L-9.1564 360.372L-8.49046 356.364L-7.77445 352.348L-6.99143 348.338L-6.12532 344.347L-5.16118 340.39L-4.08536 336.481L-2.88578 332.634L-1.5521 328.865L-0.0758202 325.188L1.54951 321.616L3.32834 318.162L5.26297 314.838L7.35366 311.654L9.59856 308.619L11.9939 305.741L14.5339 303.023L17.2111 300.471L20.0165 298.083L22.9394 295.861L25.9681 293.799L29.0897 291.893L32.2905 290.135L35.5562 288.515L38.8719 287.021L42.2229 285.64L45.5942 284.356L48.9712 283.151L52.3399 282.008L55.6869 280.906L58.9995 279.826L62.2663 278.745L65.477 277.643L68.6225 276.498L71.6954 275.287L74.6895 273.992L77.6006 272.59L80.4259 271.064L83.1642 269.396L85.8161 267.569L88.3838 265.569L90.871 263.385L93.2831 261.007L95.6267 258.427L97.9098 255.643L100.141 252.652L102.332 249.455L104.492 246.058L106.633 242.467L108.767 238.693L110.906 234.749L113.063 230.652L115.25 226.421L117.48 222.077L119.762 217.645L122.108 213.149L124.527 208.616L127.028 204.075L129.618 199.552L132.303 195.075L135.086 190.67L137.97 186.361L140.957 182.17L144.045 178.116L147.233 174.214L150.518 170.479L153.898 166.925L157.369 163.569L160.926 160.428L164.566 157.522L168.282 154.869L172.069 152.49L175.919 150.405L179.825 148.635L183.778 147.199L187.768 146.115L191.784 145.402L195.816 145.075L199.852 145.147L203.878 145.63L207.882 146.532L211.85 147.858L215.77 149.611L219.628 151.788L223.411 154.384L227.106 157.391L230.701 160.797L234.186 164.587L237.55 168.739L240.784 173.233L243.882 178.041L246.837 183.136L249.645 188.485L252.304 194.055L254.812 199.809L257.172 205.711L259.387 211.722L261.462 217.801L263.404 223.91L265.221 230.009L266.925 236.058L268.528 242.019L270.044 247.855L271.488 253.532L272.876 259.016L274.225 264.277L275.553 269.287L276.879 274.022L278.222 278.461L279.599 282.586L281.03 286.382L282.532 289.84L284.123 292.952L285.819 295.716L287.635 298.132L289.586 300.205L291.684 301.94L293.939 303.35L296.362 304.448L298.96 305.249L301.739 305.772L304.703 306.037L307.855 306.066L311.195 305.883L314.722 305.51L318.435 304.974L322.33 304.298L326.402 303.509L330.644 302.631L335.05 301.688L339.611 300.703L344.32 299.7L349.167 298.7L354.141 297.723L359.234 296.789L364.435 295.916L369.732 295.122L375.114 294.423L380.571 293.833L386.089 293.366L391.656 293.037L397.258 292.861L402.878 292.85L408.505 293.013L414.124 293.361L419.724 293.9L425.292 294.636L430.815 295.575L436.282 296.719L441.681 298.074L447 299.64L452.227 301.419L457.35 303.413L462.358 305.621L467.239 308.043L471.983 310.675L476.579 313.517L481.018 316.565L485.29 319.813L489.388 323.258L493.302 326.893L497.028 330.712L500.558 334.706L503.889 338.869L507.016 343.191L509.938 347.664L512.652 352.277L515.158 357.022L517.458 361.887L519.551 366.863L521.442 371.939L523.132 377.106L524.627 382.353L525.93 387.671L527.047 393.049L527.983 398.48L528.742 403.954L529.332 409.464L529.757 415L530.021 420.558L530.13 426.128L530.087 431.706L529.895 437.285L529.558 442.859L529.075 448.425L528.449 453.975L527.678 459.506L526.762 465.013L525.696 470.491L524.479 475.935L523.105 481.34L521.57 486.699L519.867 492.008L517.991 497.26L515.933 502.449Z" fill="url(#paint0_linear_0_1)"/>
<path fill-rule="evenodd" clip-rule="evenodd" d="M407.861 368.346L404.425 370.798L400.974 373.208L397.509 375.577L394.032 377.907L390.543 380.198L387.043 382.45L383.533 384.665L380.014 386.842L376.486 388.984L372.95 391.089L369.405 393.16L365.853 395.195L362.294 397.196L358.728 399.162L355.154 401.095L351.574 402.993L347.986 404.857L344.391 406.687L340.789 408.483L337.18 410.245L333.564 411.972L329.94 413.665L326.308 415.323L322.669 416.945L319.022 418.531L315.367 420.081L311.704 421.594L308.033 423.07L304.353 424.507L300.665 425.907L296.969 427.267L293.265 428.587L289.552 429.866L285.831 431.105L282.102 432.302L278.365 433.456L274.62 434.568L270.867 435.635L267.108 436.659L263.341 437.638L259.568 438.571L255.788 439.459L252.003 440.301L248.212 441.096L244.416 441.845L240.616 442.547L236.812 443.201L233.005 443.809L229.195 444.369L225.383 444.882L221.569 445.347L217.754 445.765L213.939 446.135L210.124 446.457L206.309 446.731L202.496 446.957L198.685 447.134L194.876 447.263L191.071 447.343L187.269 447.375L183.471 447.357L179.678 447.29L175.891 447.174L172.111 447.007L168.337 446.792L164.571 446.526L160.813 446.21L157.065 445.844L153.326 445.427L149.598 444.96L145.881 444.442L142.176 443.873L138.484 443.254L134.806 442.584L131.142 441.863L127.493 441.091L123.86 440.268L120.244 439.395L116.646 438.471L113.066 437.498L109.505 436.474L105.964 435.4L102.444 434.277L98.9452 433.105L95.4686 431.885L92.015 430.616L88.5851 429.3L85.1795 427.937L81.7988 426.527L78.4437 425.073L75.1147 423.573L71.8124 422.03L68.5372 420.444L65.2896 418.815L62.0699 417.146L58.8786 415.437L55.7158 413.69L52.5818 411.904L49.4769 410.083L46.401 408.226L43.3543 406.335L40.3366 404.411L37.3482 402.456L34.3886 400.471L31.4578 398.457L28.5555 396.415L25.6815 394.348L22.8354 392.255L20.0168 390.138L17.2253 387.998L14.4604 385.837L11.7217 383.656L9.00855 381.455L6.32042 379.236L3.65681 377L1.0171 374.747L-1.59937 372.479L-4.19301 370.195L-6.76445 367.897L-9.31433 365.585L-11.8429 363.26L-14.351 360.922L-16.8387 358.571L-19.3065 356.207L-21.7546 353.83L-24.1834 351.441L-26.5928 349.04L-28.9829 346.625L-31.3536 344.196L-33.7047 341.754L-36.0359 339.297L-38.3466 336.825L-40.6363 334.337L-42.9041 331.832L-45.1493 329.31L-47.3708 326.77L-49.5676 324.21L-51.7386 321.63L-53.8825 319.03L-55.9982 316.408L-58.0843 313.764L-60.1394 311.097L-62.1622 308.406L-64.1512 305.692L-66.1046 302.953L-68.0212 300.189L-69.8991 297.399L-71.7368 294.584L-73.5327 291.743L-75.2849 288.876L-76.9918 285.983L-78.6519 283.064L-80.2633 280.118L-81.8243 277.147L-83.3334 274.151L-84.7888 271.129L-86.189 268.082L-87.5325 265.012L-88.8177 261.917L-90.0431 258.8L-91.2074 255.661L-92.3093 252.5L-93.3474 249.319L-94.3207 246.119L-95.2281 242.902L-96.0687 239.667L-96.8415 236.416L-97.546 233.152L-98.1812 229.875L-98.7469 226.586L-99.2426 223.287L-99.668 219.98L-100.023 216.666L-100.308 213.348L-100.523 210.026L-100.668 206.702L-100.744 203.378L-100.752 200.056L-100.693 196.737L-100.568 193.423L-100.378 190.116L-100.124 186.817L-99.8085 183.528L-99.4328 180.251L-98.9987 176.986L-98.5082 173.736L-97.9636 170.502L-97.3668 167.284L-96.7203 164.084L-96.0264 160.904L-95.2876 157.743L-94.5065 154.603L-93.6856 151.485L-92.8275 148.389L-91.9349 145.316L-91.0106 142.266L-90.057 139.24L-89.0769 136.237L-88.0729 133.257L-87.0476 130.302L-86.0035 127.369L-84.943 124.46L-83.8686 121.574L-82.7825 118.71L-81.6868 115.868L-80.5837 113.047L-79.475 110.247L-78.3626 107.466L-77.248 104.704L-76.1326 101.96L-75.0178 99.233L-73.9046 96.5219L-72.7941 93.826L-71.6867 91.1441L-70.5831 88.4753L-69.4836 85.8188L-68.3881 83.1734L-67.2967 80.5385L-66.2089 77.9132L-65.1241 75.2967L-64.0415 72.6883L-62.9603 70.0876L-61.8794 67.494L-60.7977 64.9071L-59.714 62.3265L-58.627 59.7519L-57.5354 57.1833L-56.4377 54.6204L-55.3324 52.0634L-54.218 49.5123L-53.093 46.9674L-51.9556 44.4288L-50.8043 41.8971L-49.6374 39.3728L-48.4533 36.8563L-47.2503 34.3485L-46.0267 31.8499L-44.7811 29.3617L-43.5116 26.8845L-42.217 24.4195L-40.8956 21.9678L-39.546 19.5305L-38.167 17.1088L-36.7571 14.704L-35.3152 12.3174L-33.8402 9.95034L-32.331 7.60427L-30.7868 5.28059L-29.2067 2.98071L-27.59 0.706115L-25.9361 -1.54176L-24.2445 -3.7615L-22.5149 -5.95166L-20.747 -8.11084L-18.9408 -10.2377L-17.0962 -12.3308L-15.2133 -14.389L-13.2925 -16.4111L-11.334 -18.3959L-9.3384 -20.3423L-7.3063 -22.2493L-5.23844 -24.1162L-3.13571 -25.9422L-0.999074 -27.7266L1.17042 -29.4689L3.37154 -31.1687L5.60312 -32.8258L7.86378 -34.44L10.1521 -36.0112L12.4667 -37.5397L14.806 -39.0256L17.1684 -40.4694L19.5525 -41.8716L21.9565 -43.2328L24.3789 -44.5539L26.818 -45.8358L29.2722 -47.0795L31.7399 -48.2862L34.2196 -49.4572L36.7096 -50.5939L39.2086 -51.6978L41.7149 -52.7706L44.2273 -53.8139L46.7444 -54.8295L49.2649 -55.8193L51.7877 -56.7852L54.3116 -57.7292L56.8358 -58.6533L59.3593 -59.5597L61.8812 -60.4503L64.401 -61.3273L66.918 -62.1928L69.4318 -63.0489L71.9421 -63.8977L74.4486 -64.7411L76.9513 -65.5813L79.4501 -66.42L81.9452 -67.2592L84.4368 -68.1006L86.9253 -68.9458L89.4112 -69.7965L91.895 -70.6541L94.3774 -71.5197L96.8591 -72.3947L99.3412 -73.28L101.824 -74.1763L104.31 -75.0844L106.798 -76.0047L109.292 -76.9377L111.79 -77.8835L114.295 -78.8425L116.809 -79.8147L119.331 -80.8L121.864 -81.7982L124.408 -82.8092L126.965 -83.8326L129.536 -84.8678L132.122 -85.9142L134.725 -86.9713L137.345 -88.0381L139.985 -89.1137L142.644 -90.1971L145.324 -91.2873L148.026 -92.3829L150.751 -93.4826L153.5 -94.585L156.274 -95.6887L159.074 -96.792L161.9 -97.8933L164.753 -98.9908L167.635 -100.083L170.544 -101.167L173.483 -102.242L176.45 -103.306L179.448 -104.356L182.475 -105.391L185.532 -106.408L188.619 -107.405L191.737 -108.38L194.884 -109.331L198.061 -110.256L201.267 -111.152L204.502 -112.017L207.766 -112.849L211.058 -113.647L214.377 -114.406L217.722 -115.126L221.094 -115.805L224.49 -116.439L227.911 -117.028L231.354 -117.569L234.819 -118.06L238.304 -118.5L241.809 -118.886L245.331 -119.216L248.87 -119.489L252.424 -119.704L255.991 -119.858L259.57 -119.951L263.16 -119.98L266.758 -119.944L270.363 -119.843L273.973 -119.675L277.586 -119.439L281.202 -119.135L284.817 -118.76L288.43 -118.316L292.04 -117.8L295.644 -117.214L299.241 -116.555L302.83 -115.824L306.407 -115.021L309.972 -114.146L313.523 -113.198L317.058 -112.179L320.576 -111.087L324.075 -109.924L327.554 -108.689L331.01 -107.384L334.444 -106.009L337.853 -104.565L341.235 -103.052L344.591 -101.471L347.918 -99.8227L351.216 -98.1089L354.483 -96.3301L357.718 -94.4874L360.921 -92.5819L364.091 -90.6147L367.226 -88.5869L370.327 -86.5L373.392 -84.3549L376.421 -82.1529L379.413 -79.8955L382.368 -77.5836L385.286 -75.2189L388.165 -72.8025L391.006 -70.3359L393.81 -67.8205L396.574 -65.2579L399.301 -62.6493L401.99 -59.9963L404.642 -57.3004L407.256 -54.563L409.833 -51.7855L412.374 -48.9693L414.879 -46.1159L417.35 -43.2266L419.786 -40.3026L422.189 -37.3453L424.559 -34.3558L426.897 -31.3353L429.205 -28.2849L431.483 -25.2056L433.732 -22.0984L435.953 -18.9642L438.148 -15.8037L440.316 -12.6177L442.46 -9.40686L444.58 -6.17176L446.677 -2.91286L448.751 0.369431L450.805 3.67474L452.838 7.00285L454.851 10.3536L456.845 13.7268L458.821 17.1226L460.779 20.5409L462.719 23.9818L464.641 27.4455L466.547 30.9323L468.436 34.4424L470.307 37.9761L472.161 41.5339L473.997 45.1162L475.815 48.7233L477.614 52.3559L479.393 56.0145L481.151 59.6994L482.886 63.4112L484.598 67.1504L486.284 70.9173L487.944 74.7125L489.575 78.5362L491.175 82.3887L492.742 86.2703L494.274 90.1811L495.769 94.1213L497.224 98.0907L498.637 102.089L500.005 106.117L501.325 110.173L502.595 114.258L503.812 118.37L504.973 122.509L506.076 126.675L507.118 130.866L508.095 135.082L509.005 139.321L509.845 143.582L510.613 147.864L511.306 152.165L511.921 156.483L512.455 160.818L512.908 165.166L513.275 169.527L513.556 173.898L513.747 178.277L513.848 182.662L513.856 187.051L513.77 191.441L513.588 195.83L513.31 200.216L512.935 204.596L512.461 208.968L511.888 213.329L511.217 217.677L510.446 222.009L509.577 226.324L508.609 230.618L507.543 234.889L506.38 239.136L505.12 243.356L503.766 247.547L502.317 251.707L500.776 255.833L499.143 259.925L497.421 263.979L495.611 267.995L493.714 271.971L491.733 275.904L489.669 279.794L487.525 283.639L485.302 287.438L483.003 291.19L480.63 294.893L478.186 298.547L475.672 302.151L473.091 305.704L470.447 309.205L467.74 312.654L464.974 316.05L462.151 319.393L459.274 322.684L456.345 325.921L453.367 329.105L450.342 332.236L447.273 335.315L444.163 338.341L441.013 341.314L437.827 344.237L434.606 347.108L431.353 349.93L428.07 352.702L424.759 355.425L421.423 358.101L418.063 360.729L414.681 363.312L411.28 365.851L407.861 368.346Z" fill="#3694B2"/>
<defs>
<linearGradient id="paint0_linear_0_1" x1="-2307.23" y1="-2410" x2="-1833.3" y2="-2830.36" gradientUnits="userSpaceOnUse">
<stop stop-color="#FF0000"/>
<stop offset="0.0001" stop-color="#3694B2"/>
</linearGradient>
</defs>
</svg>
