<svg width="72" height="80" viewBox="0 0 72 80" fill="none" xmlns="http://www.w3.org/2000/svg">
<circle cx="36" cy="32" r="32" fill="#FFDB7E"/>
<path d="M11.9502 79C11.8289 79 11.7162 78.9697 11.6122 78.909C11.5082 78.8397 11.4562 78.74 11.4562 78.61V69.887C11.4562 69.757 11.5082 69.6617 11.6122 69.601C11.7162 69.5317 11.8289 69.497 11.9502 69.497H16.5782C16.7169 69.497 16.8122 69.549 16.8642 69.653C16.9249 69.757 16.9552 69.8653 16.9552 69.978C16.9552 70.108 16.9205 70.225 16.8512 70.329C16.7905 70.433 16.6995 70.485 16.5782 70.485H12.5482V73.787H14.5762C14.6975 73.787 14.7885 73.8347 14.8492 73.93C14.9185 74.0253 14.9532 74.1337 14.9532 74.255C14.9532 74.359 14.9229 74.4587 14.8622 74.554C14.8102 74.6493 14.7149 74.697 14.5762 74.697H12.5482V78.012H16.5782C16.6995 78.012 16.7905 78.064 16.8512 78.168C16.9205 78.2633 16.9552 78.3803 16.9552 78.519C16.9552 78.6317 16.9249 78.74 16.8642 78.844C16.8122 78.948 16.7169 79 16.5782 79H11.9502ZM17.6896 76.335C17.5856 76.335 17.4946 76.2917 17.4166 76.205C17.3473 76.1183 17.3126 76.01 17.3126 75.88C17.3126 75.7413 17.3473 75.6287 17.4166 75.542C17.4946 75.4553 17.5856 75.412 17.6896 75.412H21.0696C21.1736 75.412 21.2646 75.4553 21.3426 75.542C21.4206 75.6287 21.4596 75.7413 21.4596 75.88C21.4596 76.01 21.4206 76.1183 21.3426 76.205C21.2646 76.2917 21.1736 76.335 21.0696 76.335H17.6896ZM23.4788 79C23.3488 79 23.2231 78.9697 23.1018 78.909C22.9891 78.8397 22.9328 78.74 22.9328 78.61V69.874C22.9328 69.77 22.9718 69.6833 23.0498 69.614C23.1364 69.5447 23.2448 69.5057 23.3748 69.497H25.8318C26.3518 69.497 26.8198 69.5923 27.2358 69.783C27.6518 69.965 27.9811 70.2597 28.2238 70.667C28.4664 71.0743 28.5878 71.6203 28.5878 72.305V72.422C28.5878 73.098 28.4621 73.644 28.2108 74.06C27.9681 74.476 27.6344 74.7793 27.2098 74.97C26.7851 75.152 26.3084 75.243 25.7798 75.243H24.0248V78.61C24.0248 78.74 23.9684 78.8397 23.8558 78.909C23.7431 78.9697 23.6174 79 23.4788 79ZM24.0248 74.333H25.7798C26.3171 74.333 26.7374 74.1813 27.0408 73.878C27.3441 73.5747 27.4958 73.111 27.4958 72.487V72.331C27.4958 71.6983 27.3441 71.2347 27.0408 70.94C26.7374 70.6367 26.3171 70.485 25.7798 70.485H24.0248V74.333ZM32.0814 79.104C31.5181 79.104 31.0197 79 30.5864 78.792C30.1531 78.5753 29.8107 78.2807 29.5594 77.908C29.3081 77.5267 29.1824 77.0847 29.1824 76.582V75.217C29.1824 74.775 29.2994 74.3677 29.5334 73.995C29.7761 73.6223 30.0924 73.3233 30.4824 73.098C30.8724 72.8727 31.3014 72.76 31.7694 72.76C32.2201 72.76 32.6317 72.864 33.0044 73.072C33.3857 73.28 33.6891 73.5617 33.9144 73.917C34.1484 74.2723 34.2654 74.684 34.2654 75.152C34.2654 75.4987 34.2091 75.75 34.0964 75.906C33.9837 76.0533 33.8407 76.1443 33.6674 76.179C33.4941 76.2137 33.3121 76.231 33.1214 76.231H30.2614V76.621C30.2614 77.1063 30.4347 77.492 30.7814 77.778C31.1281 78.0553 31.5744 78.194 32.1204 78.194C32.4411 78.194 32.6967 78.1507 32.8874 78.064C33.0781 77.9773 33.2341 77.895 33.3554 77.817C33.4767 77.7303 33.5851 77.687 33.6804 77.687C33.7757 77.687 33.8537 77.7173 33.9144 77.778C33.9837 77.83 34.0357 77.895 34.0704 77.973C34.1051 78.051 34.1224 78.1203 34.1224 78.181C34.1224 78.2937 34.0401 78.4237 33.8754 78.571C33.7107 78.7097 33.4724 78.8353 33.1604 78.948C32.8571 79.052 32.4974 79.104 32.0814 79.104ZM30.2614 75.503H32.6664C32.9004 75.503 33.0521 75.477 33.1214 75.425C33.1994 75.3643 33.2384 75.2517 33.2384 75.087C33.2384 74.827 33.1734 74.5887 33.0434 74.372C32.9221 74.1467 32.7487 73.9647 32.5234 73.826C32.2981 73.6873 32.0424 73.618 31.7564 73.618C31.4877 73.618 31.2407 73.683 31.0154 73.813C30.7901 73.9343 30.6081 74.1033 30.4694 74.32C30.3307 74.5367 30.2614 74.775 30.2614 75.035V75.503ZM37.5264 79.104C37.119 79.104 36.7377 78.987 36.3824 78.753C36.0357 78.5103 35.754 78.1983 35.5374 77.817C35.3294 77.427 35.2254 77.0153 35.2254 76.582V75.256C35.2254 74.7967 35.3294 74.3807 35.5374 74.008C35.754 73.6353 36.0357 73.3363 36.3824 73.111C36.7377 72.877 37.1277 72.76 37.5524 72.76C37.9684 72.76 38.3194 72.864 38.6054 73.072C38.9 73.2713 39.1167 73.4967 39.2554 73.748V69.497C39.2554 69.3843 39.3074 69.2933 39.4114 69.224C39.524 69.1547 39.6584 69.12 39.8144 69.12C39.9704 69.12 40.096 69.1547 40.1914 69.224C40.2867 69.2933 40.3344 69.3843 40.3344 69.497V78.61C40.3344 78.7053 40.2867 78.7963 40.1914 78.883C40.096 78.961 39.9704 79 39.8144 79C39.6757 79 39.5544 78.961 39.4504 78.883C39.355 78.7963 39.3074 78.7053 39.3074 78.61V78.09C39.1774 78.3587 38.9477 78.597 38.6184 78.805C38.289 79.0043 37.925 79.104 37.5264 79.104ZM37.7864 78.129C38.0637 78.129 38.3107 78.0553 38.5274 77.908C38.7527 77.752 38.9304 77.5787 39.0604 77.388C39.1904 77.1973 39.2554 77.0457 39.2554 76.933V75.256C39.2554 74.9353 39.1817 74.6667 39.0344 74.45C38.8957 74.2247 38.7137 74.0513 38.4884 73.93C38.263 73.8 38.0334 73.735 37.7994 73.735C37.522 73.735 37.2707 73.8087 37.0454 73.956C36.82 74.1033 36.638 74.294 36.4994 74.528C36.3694 74.762 36.3044 75.0047 36.3044 75.256V76.582C36.3044 76.8333 36.3694 77.0803 36.4994 77.323C36.638 77.5657 36.82 77.7607 37.0454 77.908C37.2707 78.0553 37.5177 78.129 37.7864 78.129ZM42.4162 71.148C42.2342 71.148 42.0739 71.0873 41.9352 70.966C41.8052 70.836 41.7402 70.6887 41.7402 70.524C41.7402 70.3593 41.8052 70.2163 41.9352 70.095C42.0739 69.9737 42.2342 69.913 42.4162 69.913C42.6069 69.913 42.7629 69.9737 42.8842 70.095C43.0142 70.2163 43.0792 70.3593 43.0792 70.524C43.0792 70.6887 43.0142 70.836 42.8842 70.966C42.7629 71.0873 42.6069 71.148 42.4162 71.148ZM42.4162 79C42.2602 79 42.1302 78.961 42.0262 78.883C41.9309 78.7963 41.8832 78.7053 41.8832 78.61V73.215C41.8832 73.1023 41.9309 73.0113 42.0262 72.942C42.1302 72.8727 42.2602 72.838 42.4162 72.838C42.5635 72.838 42.6892 72.8727 42.7932 72.942C42.9059 73.0113 42.9622 73.1023 42.9622 73.215V78.61C42.9622 78.7053 42.9059 78.7963 42.7932 78.883C42.6892 78.961 42.5635 79 42.4162 79ZM46.5528 79.104C46.1454 79.104 45.7641 78.987 45.4088 78.753C45.0621 78.5103 44.7804 78.1983 44.5638 77.817C44.3558 77.427 44.2518 77.0153 44.2518 76.582V75.256C44.2518 74.7967 44.3558 74.3807 44.5638 74.008C44.7804 73.6353 45.0621 73.3363 45.4088 73.111C45.7641 72.877 46.1541 72.76 46.5788 72.76C46.9948 72.76 47.3458 72.864 47.6318 73.072C47.9264 73.2713 48.1431 73.4967 48.2818 73.748V69.497C48.2818 69.3843 48.3338 69.2933 48.4378 69.224C48.5504 69.1547 48.6848 69.12 48.8408 69.12C48.9968 69.12 49.1224 69.1547 49.2178 69.224C49.3131 69.2933 49.3608 69.3843 49.3608 69.497V78.61C49.3608 78.7053 49.3131 78.7963 49.2178 78.883C49.1224 78.961 48.9968 79 48.8408 79C48.7021 79 48.5808 78.961 48.4768 78.883C48.3814 78.7963 48.3338 78.7053 48.3338 78.61V78.09C48.2038 78.3587 47.9741 78.597 47.6448 78.805C47.3154 79.0043 46.9514 79.104 46.5528 79.104ZM46.8128 78.129C47.0901 78.129 47.3371 78.0553 47.5538 77.908C47.7791 77.752 47.9568 77.5787 48.0868 77.388C48.2168 77.1973 48.2818 77.0457 48.2818 76.933V75.256C48.2818 74.9353 48.2081 74.6667 48.0608 74.45C47.9221 74.2247 47.7401 74.0513 47.5148 73.93C47.2894 73.8 47.0598 73.735 46.8258 73.735C46.5484 73.735 46.2971 73.8087 46.0718 73.956C45.8464 74.1033 45.6644 74.294 45.5258 74.528C45.3958 74.762 45.3308 75.0047 45.3308 75.256V76.582C45.3308 76.8333 45.3958 77.0803 45.5258 77.323C45.6644 77.5657 45.8464 77.7607 46.0718 77.908C46.2971 78.0553 46.5441 78.129 46.8128 78.129ZM53.2366 79.104C52.7772 79.104 52.3526 78.987 51.9626 78.753C51.5726 78.5103 51.2606 78.1983 51.0266 77.817C50.7926 77.4357 50.6756 77.024 50.6756 76.582V75.256C50.6756 74.814 50.7882 74.4067 51.0136 74.034C51.2476 73.6527 51.5596 73.345 51.9496 73.111C52.3396 72.877 52.7686 72.76 53.2366 72.76C53.6959 72.76 54.1206 72.877 54.5106 73.111C54.9006 73.3363 55.2126 73.6353 55.4466 74.008C55.6892 74.3807 55.8106 74.7967 55.8106 75.256V76.582C55.8106 77.0153 55.6892 77.427 55.4466 77.817C55.2126 78.1983 54.9006 78.5103 54.5106 78.753C54.1206 78.987 53.6959 79.104 53.2366 79.104ZM53.2366 78.129C53.5139 78.129 53.7609 78.0553 53.9776 77.908C54.2029 77.7607 54.3849 77.57 54.5236 77.336C54.6622 77.0933 54.7316 76.842 54.7316 76.582V75.256C54.7316 75.0047 54.6622 74.762 54.5236 74.528C54.3936 74.294 54.2159 74.1033 53.9906 73.956C53.7652 73.8087 53.5139 73.735 53.2366 73.735C52.9592 73.735 52.7079 73.8087 52.4826 73.956C52.2572 74.1033 52.0796 74.294 51.9496 74.528C51.8196 74.762 51.7546 75.0047 51.7546 75.256V76.582C51.7546 76.842 51.8196 77.0933 51.9496 77.336C52.0796 77.57 52.2572 77.7607 52.4826 77.908C52.7079 78.0553 52.9592 78.129 53.2366 78.129ZM58.8729 79.104C58.4569 79.104 58.0886 79.052 57.7679 78.948C57.4472 78.8353 57.1959 78.7053 57.0139 78.558C56.8319 78.4107 56.7409 78.2633 56.7409 78.116C56.7409 78.0467 56.7582 77.9773 56.7929 77.908C56.8276 77.83 56.8709 77.765 56.9229 77.713C56.9836 77.6523 57.0486 77.622 57.1179 77.622C57.2219 77.622 57.3346 77.674 57.4559 77.778C57.5772 77.8733 57.7419 77.973 57.9499 78.077C58.1579 78.181 58.4569 78.233 58.8469 78.233C59.3062 78.233 59.6269 78.1507 59.8089 77.986C59.9909 77.8127 60.0819 77.622 60.0819 77.414C60.0819 77.1453 60.0039 76.9417 59.8479 76.803C59.6919 76.6557 59.4926 76.543 59.2499 76.465C59.0072 76.3783 58.7516 76.296 58.4829 76.218C58.2142 76.14 57.9586 76.0447 57.7159 75.932C57.4732 75.8107 57.2739 75.646 57.1179 75.438C56.9706 75.2213 56.8969 74.9353 56.8969 74.58C56.8969 74.294 56.9662 74.0123 57.1049 73.735C57.2436 73.4577 57.4689 73.228 57.7809 73.046C58.0929 72.8553 58.5089 72.76 59.0289 72.76C59.3322 72.76 59.6226 72.7947 59.8999 72.864C60.1859 72.9247 60.4156 73.0113 60.5889 73.124C60.7709 73.228 60.8619 73.3407 60.8619 73.462C60.8619 73.514 60.8446 73.5833 60.8099 73.67C60.7752 73.7567 60.7276 73.8347 60.6669 73.904C60.6062 73.9733 60.5282 74.008 60.4329 74.008C60.3636 74.008 60.2639 73.9777 60.1339 73.917C60.0126 73.8477 59.8609 73.7827 59.6789 73.722C59.5056 73.6613 59.2932 73.631 59.0419 73.631C58.7559 73.631 58.5262 73.683 58.3529 73.787C58.1796 73.8823 58.0539 73.9993 57.9759 74.138C57.8979 74.268 57.8589 74.4023 57.8589 74.541C57.8589 74.7577 57.9326 74.9267 58.0799 75.048C58.2359 75.1693 58.4352 75.269 58.6779 75.347C58.9292 75.4163 59.1892 75.49 59.4579 75.568C59.7266 75.6373 59.9822 75.7413 60.2249 75.88C60.4676 76.01 60.6669 76.192 60.8229 76.426C60.9789 76.66 61.0569 76.972 61.0569 77.362C61.0569 77.8907 60.8662 78.3153 60.4849 78.636C60.1036 78.948 59.5662 79.104 58.8729 79.104Z" fill="black"/>
<g filter="url(#filter0_d_1113_1455)">
<rect x="21" y="10" width="31" height="46.5" rx="5" fill="black"/>
<rect x="22.5" y="11.5" width="28" height="43.5" rx="3.5" stroke="black" stroke-width="3"/>
</g>
<rect x="32.0713" y="10.7383" width="8.11905" height="0.738095" rx="0.369048" fill="#D9D9D9"/>
<circle cx="36.4998" cy="25.5007" r="12.5476" fill="#FF0000"/>
<circle cx="36.4998" cy="32.1414" r="12.5476" fill="#FF8212"/>
<circle cx="36.4998" cy="42.4773" r="12.5476" fill="#3694B2"/>
<path d="M35.0205 25.9977C35.0461 26.1504 35.5347 29.0679 35.5347 30.1822C35.5347 31.8814 34.6469 33.0932 33.3343 33.5805L33.7462 41.316C33.7686 41.7611 33.7462 55.7478 32.7211 56.5039L30.9358 55.7478C30.4983 55.7478 30.147 41.7644 30.1693 41.316L30.5813 33.5805C29.2655 33.0932 28.3809 31.8781 28.3809 30.1822C28.3809 29.0646 28.8695 26.1504 28.895 25.9977C28.9972 25.3382 30.3418 25.3285 30.4248 26.0335V30.6208C30.4663 30.7313 30.9071 30.7248 30.9358 30.6208C30.9805 29.7989 31.1881 26.0984 31.1913 26.014C31.2967 25.3382 32.6189 25.3382 32.7211 26.014C32.7275 26.1017 32.9319 29.7989 32.9766 30.6208C33.0053 30.7248 33.4492 30.7313 33.4876 30.6208V26.0335C33.5706 25.3317 34.9183 25.3382 35.0205 25.9977ZM38.8274 35.2797L38.3483 41.2933C38.31 41.7481 37.9012 55.7478 38.3483 55.7478H40.9001C41.6666 55.7478 41.6666 41.7904 41.6666 41.3583V26.2836C41.6666 25.8548 41.3249 25.5039 40.9001 25.5039C38.2653 25.5039 33.8293 31.3031 38.8274 35.2797Z" fill="black"/>
<defs>
<filter id="filter0_d_1113_1455" x="17" y="10" width="39" height="54.5" filterUnits="userSpaceOnUse" color-interpolation-filters="sRGB">
<feFlood flood-opacity="0" result="BackgroundImageFix"/>
<feColorMatrix in="SourceAlpha" type="matrix" values="0 0 0 0 0 0 0 0 0 0 0 0 0 0 0 0 0 0 127 0" result="hardAlpha"/>
<feOffset dy="4"/>
<feGaussianBlur stdDeviation="2"/>
<feComposite in2="hardAlpha" operator="out"/>
<feColorMatrix type="matrix" values="0 0 0 0 0 0 0 0 0 0 0 0 0 0 0 0 0 0 0.25 0"/>
<feBlend mode="normal" in2="BackgroundImageFix" result="effect1_dropShadow_1113_1455"/>
<feBlend mode="normal" in="SourceGraphic" in2="effect1_dropShadow_1113_1455" result="shape"/>
</filter>
</defs>
</svg>
