<svg width="32" height="27" viewBox="0 0 32 27" fill="none" xmlns="http://www.w3.org/2000/svg">
<path d="M6.4 27L9.6 18.5625H14.4V11.7703C10.32 11.6297 6.89973 10.9969 4.1392 9.87188C1.37867 8.74688 -0.00106605 7.425 6.17999e-07 5.90625C6.17999e-07 4.275 1.56 2.88281 4.68 1.72969C7.8 0.576563 11.5733 0 16 0C20.4533 0 24.2336 0.576563 27.3408 1.72969C30.448 2.88281 32.0011 4.275 32 5.90625C32 7.425 30.6197 8.74688 27.8592 9.87188C25.0987 10.9969 21.6789 11.6297 17.6 11.7703V18.5625H22.4L25.6 27H22.4L20.48 21.9375H11.52L9.6 27H6.4Z" fill="#17A035"/>
</svg>
