<svg width="19" height="22" viewBox="0 0 19 22" fill="none" xmlns="http://www.w3.org/2000/svg">
<path d="M4.68457 12.0517V6.26248C4.68457 5.84373 4.85092 5.44214 5.14701 5.14604C5.44311 4.84994 5.84471 4.68359 6.26345 4.68359C6.6822 4.68359 7.0838 4.84994 7.37989 5.14604C7.67599 5.44214 7.84234 5.84373 7.84234 6.26248V12.0517" stroke="black" stroke-width="2" stroke-linecap="round" stroke-linejoin="round"/>
<path d="M17.3156 11.5273V14.9483C17.3156 18.2908 14.6057 21.0006 11.2633 21.0006H10.737C7.39446 21.0006 4.68457 18.2908 4.68457 14.9483V11.5273" stroke="black" stroke-width="2" stroke-linecap="round" stroke-linejoin="round"/>
<path d="M7.8418 13.6322V11.0008C7.8418 10.582 8.00814 10.1804 8.30424 9.88432C8.60034 9.58822 9.00193 9.42188 9.42068 9.42188C9.83943 9.42188 10.241 9.58822 10.5371 9.88432C10.8332 10.1804 10.9996 10.582 10.9996 11.0008M10.9996 11.0008V13.6322M10.9996 11.0008C10.9996 10.582 11.1659 10.1804 11.462 9.88432C11.7581 9.58822 12.1597 9.42188 12.5784 9.42188C12.9972 9.42188 13.3988 9.58822 13.6949 9.88432C13.991 10.1804 14.1573 10.582 14.1573 11.0008M14.1573 11.0008V13.6322M14.1573 11.0008C14.1573 10.582 14.3237 10.1804 14.6198 9.88432C14.9159 9.58822 15.3175 9.42188 15.7362 9.42188C16.155 9.42188 16.5566 9.58822 16.8527 9.88432C17.1488 10.1804 17.3151 10.582 17.3151 11.0008V13.6322" stroke="black" stroke-width="2" stroke-linecap="round" stroke-linejoin="round"/>
<path d="M11.5259 6.26295C11.5271 5.13635 11.1656 4.03929 10.4949 3.13413C10.0059 2.47181 9.36822 1.93362 8.63315 1.56293C7.89808 1.19224 7.0862 0.999416 6.26295 1C5.43961 0.999334 4.62763 1.19212 3.89246 1.56281C3.15729 1.9335 2.5195 2.47174 2.03049 3.13413C1.35997 4.03937 0.998653 5.13642 1 6.26295" stroke="black" stroke-width="2" stroke-linecap="round"/>
</svg>
